<?xml version="1.0" encoding="utf-8"?>
<!-- Svg Vector Icons : http://www.onlinewebfonts.com/icon -->
<!DOCTYPE svg PUBLIC "-//W3C//DTD SVG 1.1//EN" "http://www.w3.org/Graphics/SVG/1.1/DTD/svg11.dtd">
<svg version="1.1" xmlns="http://www.w3.org/2000/svg" xmlns:xlink="http://www.w3.org/1999/xlink" x="0px" y="0px" viewBox="0 0 1000 1000" enable-background="new 0 0 1000 1000" xml:space="preserve">
<metadata> Svg Vector Icons : http://www.onlinewebfonts.com/icon </metadata>
<g><g transform="translate(0.000000,511.000000) scale(0.100000,-0.100000)"><path d="M1061.3,4991.4c-50.4-11-151.3-48.3-223.7-85.5c-454-230.3-633.8-793.9-397-1256.7c74.6-146.9,245.6-311.4,410.1-392.6c140.4-72.4,157.9-74.6,407.9-76.8l258.8-2.2l206.2-206.1c114-111.9,206.2-212.7,206.2-221.5c0-8.8-54.8-76.8-122.8-153.5C1379.3,2109.6,1028.4,1394.6,888,721.3C800.3,300.3,784.9-94.5,793.7-1928c8.8-1877.3,2.2-1789.6,162.3-2107.6c177.6-357.5,517.6-622.9,923.3-721.6c230.3-54.8,552.7-37.3,774.2,43.9c337.7,122.8,625,372.8,776.4,675.5c83.3,168.9,144.8,375,144.8,491.3c0,39.5,11,72.4,21.9,72.4c13.2,0,21.9-32.9,21.9-72.4c0-250,166.7-598.7,394.8-826.8c271.9-274.1,609.7-416.7,982.5-416.7c245.6,0,375,30.7,616.3,146.9c364.1,173.2,638.2,508.8,736.9,894.8c17.5,70.2,32.9,162.3,32.9,201.8c0,39.5,11,72.4,21.9,72.4c13.1,0,21.9-32.9,21.9-72.4c0-223.7,160.1-579,355.3-791.7c265.4-291.7,629.4-451.8,1026.4-451.8c633.8,0,1186.5,427.7,1353.2,1052.7c37.3,131.6,39.5,300.5,39.5,2028.6c0,2066-2.2,2096.7-131.6,2612c-153.5,609.7-434.2,1160.2-842.2,1653.6c-85.5,103.1-155.7,190.8-155.7,197.4c0,6.6,92.1,105.3,206.2,217.1l206.1,206.1l258.8,2.2c239.1,2.2,272,6.6,386,63.6c712.8,348.7,715,1337.8,6.6,1675.6c-456.2,214.9-1000.1,24.1-1223.8-429.9c-65.8-136-70.2-160.1-72.4-405.7l-2.2-258.8l-228.1-228.1c-125-125-236.9-228.1-245.6-228.1c-11,0-103.1,50.4-204,111.9c-493.5,298.3-1098.8,500-1697.5,570.2c-318,35.1-908,15.3-1228.2-46.1c-467.1-85.5-986.9-282.9-1397-530.7L2636,3353.1l-234.7,234.7l-236.9,236.9l-2.2,258.8c-2.2,250-4.4,267.6-76.8,407.9C1894.7,4873,1480.2,5074.7,1061.3,4991.4z M5416.9,2171c344.3-76.8,660.1-250,903.6-495.6c364-361.9,550.5-807.1,552.7-1322.5c4.4-962.8-684.3-1743.5-1653.6-1875.1c-212.7-28.5-414.5-15.4-671.1,43.9c-337.7,79-638.2,252.2-894.8,513.2c-715,734.7-706.2,1910.2,17.5,2636.2C4131.7,2129.3,4783,2315.8,5416.9,2171z"/><path d="M4704.1,1217c-377.2-131.6-625-475.9-625-875.1c0-368.4,201.8-677.7,546.1-842.2c133.8-63.6,162.3-68,377.2-68c221.5,0,236.9,2.2,394.8,81.1c204,100.9,346.5,245.6,443,451.8c65.8,136,70.2,164.5,70.2,377.2c0,212.7-4.4,241.2-68,375c-118.4,250-302.6,416.7-552.7,500C5112,1278.4,4881.7,1276.2,4704.1,1217z"/></g></g>
</svg>