<?xml version="1.0" encoding="utf-8"?>
<!-- Generator: Adobe Illustrator 21.0.0, SVG Export Plug-In . SVG Version: 6.00 Build 0)  -->
<svg version="1.1" id="Layer_1" xmlns="http://www.w3.org/2000/svg" xmlns:xlink="http://www.w3.org/1999/xlink" x="0px" y="0px"
	 viewBox="0 0 512 512" style="enable-background:new 0 0 512 512;" xml:space="preserve">
<g>
	<path d="M301.3,42.6c-35.8,0-62.4,29.1-62.4,62.4v57.6c-47.1,2.5-89.8,14.9-124.3,34.7c-13.2-12.7-30.8-18.1-48-18.1
		c-18.6,0-37.5,6.1-50.7,20.8v0.5l-0.5,0.5C2.8,216.8-2.3,237.8,1,258.7c3.1,19.1,14.3,38.6,33.6,51.2c-0.1,1.9-0.5,3.9-0.5,5.9
		c0,44.5,26.9,83.4,67.2,110.4S196,469.4,256,469.4s114.4-16.2,154.7-43.2s67.2-66,67.2-110.4c0-2-0.4-3.9-0.5-5.9
		c19.3-12.6,30.5-32.1,33.6-51.2c3.3-20.9-1.8-41.9-14.4-57.6l-0.5-0.5c-13.1-14.7-32.1-21.3-50.7-21.3c-17.2,0-34.8,5.4-48,18.1
		c-34.5-19.7-77.2-32.2-124.3-34.7V105c0-16.7,9.5-28.3,28.3-28.3c8.9,0,19.9,4.2,36.8,10.1c14.4,5.1,33.1,10.7,57.1,12.3
		c5.8,16.7,21.5,28.8,40,28.8c23.5,0,42.7-19.2,42.7-42.7s-19.2-42.7-42.7-42.7c-16.1,0-30.1,9.1-37.3,22.4
		c-20.5-1.2-35.3-5.5-48.5-10.1C334,49.5,319.8,42.6,301.3,42.6z M256,196.2c53.8,0,101.8,14.8,135.5,37.3s52.3,51.5,52.3,82.2
		s-18.6,59.6-52.3,82.2s-81.7,37.3-135.5,37.3s-101.8-14.8-135.5-37.3s-52.3-51.5-52.3-82.2s18.6-59.6,52.3-82.2
		S202.2,196.2,256,196.2z M66.6,213.3c6.5,0,12.9,1.6,18.1,4.3c-18.5,15.5-32.9,34-41.6,54.4c-4.3-5.5-6.9-12-8-18.7
		c-1.9-11.5,1.5-23.3,6.9-30.4v-0.5C47.3,216.9,56.5,213.3,66.6,213.3z M445.4,213.3c10.1,0,19.3,3.6,24.5,9.1v0.5
		c5.5,7.1,8.8,18.9,6.9,30.4c-1.1,6.7-3.7,13.2-8,18.7c-8.7-20.4-23.1-38.9-41.6-54.4C432.5,214.9,438.9,213.3,445.4,213.3z
		 M170.6,247.5c-18.9,0-34.1,15.3-34.1,34.1c0,18.9,15.3,34.1,34.1,34.1s34.1-15.3,34.1-34.1C204.8,262.7,189.5,247.5,170.6,247.5z
		 M341.4,247.5c-18.9,0-34.1,15.3-34.1,34.1c0,18.9,15.3,34.1,34.1,34.1c18.9,0,34.1-15.3,34.1-34.1
		C375.5,262.7,360.2,247.5,341.4,247.5z M345.6,341.9c-19.6,18.2-52.5,29.9-89.6,29.9S186,360,166.4,344
		c10.9,29.6,46,57.1,89.6,57.1S334.7,373.8,345.6,341.9z"/>
</g>
</svg>
